<svg width="15" height="11" viewBox="0 0 15 11" fill="none" xmlns="http://www.w3.org/2000/svg">
<path d="M4.99996 8.47494L2.10829 5.58328C1.95248 5.42746 1.74115 5.33992 1.52079 5.33992C1.30044 5.33992 1.08911 5.42746 0.933292 5.58328C0.777477 5.73909 0.689941 5.95042 0.689941 6.17078C0.689941 6.27988 0.711432 6.38792 0.753186 6.48873C0.79494 6.58953 0.85614 6.68112 0.933292 6.75828L4.41663 10.2416C4.74163 10.5666 5.26662 10.5666 5.59163 10.2416L14.4083 1.42494C14.5641 1.26913 14.6516 1.0578 14.6516 0.837442C14.6516 0.617087 14.5641 0.405757 14.4083 0.249942C14.2525 0.0941278 14.0411 0.0065918 13.8208 0.0065918C13.6004 0.0065918 13.3891 0.0941278 13.2333 0.249942L4.99996 8.47494Z" fill="#338A75"/>
</svg>
